PathFileType	4	(X/Y/Z)	Patient4_TMGait_0pt6_02_left_17.trc.trc
DataRate	CameraRate	NumFrames	NumMarkers	Units	OrigDataRate	OrigDataStartFrame	OrigNumFrames
83.333333333333	83.333333333333	6	33	mm	83.333333333333	124	       141
Frame#	Time	Sacral			L.Shoulder			Chest			R.Shoulder			Neck			R.ASIS			L.ASIS			R.Thigh.Superior			R.Thigh.Lateral			R.Thigh.Inferior			R.Patella			L.Thigh.Superior			L.Thigh.Lateral			L.Thigh.Inferior			L.Patella			L.Shank.Superior			L.Shank.Lateral			L.Shank.Inferior			R.Shank.Superior			R.Shank.Lateral			R.Shank.Inferior			R.Heel			R.Midfoot.Superior			R.Midfoot.Lateral			R.Toe			L.Heel			L.Midfoot.Lateral			L.Midfoot.Superior			L.Toe			L.Elbow			L.Wrist			R.Elbow			R.Wrist			
		X1	Y1	Z1	X2	Y2	Z2	X3	Y3	Z3	X4	Y4	Z4	X5	Y5	Z5	X6	Y6	Z6	X7	Y7	Z7	X8	Y8	Z8	X9	Y9	Z9	X10	Y10	Z10	X11	Y11	Z11	X12	Y12	Z12	X13	Y13	Z13	X14	Y14	Z14	X15	Y15	Z15	X16	Y16	Z16	X17	Y17	Z17	X18	Y18	Z18	X19	Y19	Z19	X20	Y20	Z20	X21	Y21	Z21	X22	Y22	Z22	X23	Y23	Z23	X24	Y24	Z24	X25	Y25	Z25	X26	Y26	Z26	X27	Y27	Z27	X28	Y28	Z28	X29	Y29	Z29	X30	Y30	Z30	X31	Y31	Z31	X32	Y32	Z32	X33	Y33	Z33	

124	22.366000000000	768.094827227778	1009.468638193381	530.394189039057	952.176682449939	1432.485547470340	347.644230917615	1063.677434569561	1353.276473292503	497.252898102669	998.311673379711	1429.693920821510	677.423320239600	965.424600207946	1488.745753364119	500.289273779097	995.610336558428	936.521769380766	635.863509238839	970.601933766359	952.306553688456	361.253648201785	995.108705318965	725.289880523998	611.236433481493	891.864835870376	632.002454245153	672.623751255759	953.810812250856	565.778933996867	593.559085105491	935.576617370386	481.681906572857	597.422333766170	1037.867767823216	763.344519713794	394.138123069927	979.986907941147	636.497132435718	319.839754042986	1080.467524079465	574.789928545367	382.172180807275	1102.926230985633	509.939868743509	382.273334013608	1086.667634218990	438.840839523631	372.038491886153	1020.520890722624	308.697320074602	323.139706545459	1106.627066055306	210.439856621360	379.808442394984	898.963164579017	397.916351171549	603.466212390274	817.202746483684	302.155420240964	665.198605420209	848.027145827262	203.741500445159	599.872028568863	701.173194854856	44.463705075560	567.511375552448	871.651115651986	95.381515634818	603.926327126896	783.594754353670	36.464113619642	641.949294006900	992.167981595941	41.043587883783	633.128737195692	1019.004645858517	40.157715043840	421.551800124467	1092.481575896000	38.850075801215	340.951049139355	1170.191184089834	107.708565721009	362.445248270571	1300.986492326766	65.158927300241	335.567229248724	820.667210864058	1102.346672320464	240.925611303948	806.431344385046	842.665097844650	226.940974923918	1092.449565719292	1108.319871716465	807.125164865957	1331.113829289196	1139.855381352726	736.231422046577	
125	22.378000000000	768.504230866815	1008.161802648519	528.306628981821	951.008445867702	1431.539796172200	345.077118130272	1062.788184307467	1353.109653733088	494.971905181992	996.637381482014	1429.355229451263	675.008794100451	963.945641165171	1488.110237536622	497.598345087442	996.142793637545	935.767463877606	634.245778612837	971.483422135138	951.504810851705	359.713986128708	995.426706800106	724.203345807180	609.983517191026	891.416603758741	631.224128276266	671.067282427484	953.190977731172	564.551807567793	592.263038811619	934.115559217156	480.123574657492	595.865962353199	1039.255288464555	761.955120500451	393.450557241231	980.337325311156	635.281490085514	319.834231462024	1080.223718043022	573.410204954887	382.836855149520	1101.347994291478	507.480851993702	383.501452860973	1084.438193426790	436.017596063067	373.013191966769	1016.134664693701	307.046142773220	323.637486663639	1099.581457443175	207.171691629222	381.425661500682	896.446431342634	396.639631369250	602.185316852289	813.555904150103	302.116252753718	664.404958553215	842.618593272339	203.142318264313	599.264132031200	693.974408417546	44.827716241943	567.652518119393	864.553471256493	95.373112111523	603.912182644528	776.428739282148	36.544834253930	641.996221235029	985.003724407410	40.806365952810	633.197805573223	1007.859243399572	39.057629680474	422.520976708384	1081.411802915899	37.214017502068	341.885161033634	1160.707157114685	103.866235823834	364.732118889218	1290.895463699193	58.516548936293	337.436181898497	818.677483683033	1101.840330623534	238.747356228142	804.859886802933	841.993872069414	225.047156635251	1087.719692499591	1106.597226158252	804.816834433409	1325.355312446272	1139.981970782010	731.843994833264	
126	22.390000000000	768.927062090366	1007.051108413451	526.180594244478	949.893701933344	1430.699207173025	342.412093498609	1061.976345251431	1353.089036244737	492.595104759713	995.088293082648	1429.221471995461	672.491067445030	962.566755255457	1487.641641970524	494.763472023283	996.717300573020	935.088479940329	632.494430902739	972.298350212275	950.976529929323	358.123338866863	995.796546096783	723.212671703166	608.516371006155	891.051642407685	630.551407627056	669.351858044049	952.637139995131	563.430766089507	590.799336891293	932.781502062703	478.591846304524	594.190503807005	1040.602284498048	760.870618737445	392.715200165697	980.859067441063	634.514548307374	319.560967709867	1080.086788583981	572.433003119158	383.399243143757	1099.850379233219	505.483219528753	384.564125012046	1082.429137888476	433.702695712615	373.744703279469	1012.347931325423	305.839008713133	323.696575993536	1093.146438843781	204.528868817177	382.720059514074	893.990213371799	395.460316007037	600.810613788956	809.956002681477	302.226055445194	663.567305232279	837.251701180130	202.681921473413	598.653016039718	686.782332991944	45.391399923400	567.840301086130	857.529867637928	95.383135782313	603.907172460749	769.296747689927	36.695535573805	642.059670586046	977.885024040909	40.526027928056	633.264809612657	997.676634399359	38.267712188546	423.094953235167	1071.375523094698	36.121085074231	342.500254768912	1151.891276296666	100.937120930839	366.655063265070	1281.617740423395	53.382806789788	339.091154087052	817.325155805309	1101.146391134761	236.457889761955	804.104712416470	841.127563160450	223.040448411951	1082.473855075327	1104.882018323732	802.498509276939	1319.459035690815	1138.920680547663	727.822595654463	
127	22.402000000000	769.345198869489	1006.213823736380	524.030191429104	948.830156014148	1430.035177319734	339.690074263031	1061.246016838456	1353.246088856989	490.134673052772	993.725195629086	1429.334431766171	669.893487178474	961.313993081689	1487.389635055031	491.832142200905	997.295286522848	934.548091109356	630.583212429637	973.003716060506	950.769224732306	356.429398891723	996.150781168718	722.381210023031	606.807484899470	890.742227889013	630.040671129990	667.494685852550	952.138117078214	562.478547281829	589.182030772380	931.610597439845	477.121256544337	592.470583869981	1041.860052873558	760.211753171504	391.883351693385	981.547426303978	634.234392101281	319.012525612191	1080.069492442506	571.907094068487	383.766665511867	1098.483290818396	504.002957743525	385.355992188509	1080.653270883828	431.933588514315	374.183196957517	1009.133723600906	305.100973354097	323.344609297652	1087.333993954877	202.538383032248	383.656384849096	891.609393171430	394.426229935528	599.396956468008	806.391274740767	302.541576250189	662.709772970925	831.946333845011	202.412669897005	598.074868784374	679.608003612889	46.229548055210	568.079805014810	850.611495513526	95.422830140405	603.928414358003	762.205578771852	36.950996365794	642.143241617136	970.814728710351	40.204620339879	633.328490386117	988.527151471603	37.777751623057	423.351538796410	1062.400621288082	35.510835595547	342.838938831795	1143.772220827104	98.915340993705	368.139262317609	1273.176901571957	49.775076399658	340.417285288015	816.611405978123	1100.338399076424	234.076082744746	804.169832238854	840.142472641438	220.923458215004	1076.726800297713	1103.242763372484	800.151664435154	1313.466203949638	1136.633369763114	724.164754585690	
128	22.414000000000	769.745776113750	1005.706757091337	521.855728450186	947.812708190518	1429.609438622218	336.947205681168	1060.594295276979	1353.602204437291	487.601318637957	992.590675501623	1429.719388748330	667.236511898876	960.199030886723	1487.389368297251	488.852499438809	997.837070543648	934.207080873231	628.490794028238	973.579666933658	950.900302350390	354.574724160372	996.443632031101	721.768656430114	604.853235603896	890.493241512777	629.731504443005	665.524739164080	951.732762226575	561.748781473653	587.438620450147	930.694731696229	475.733665673108	590.799297330908	1042.990219315218	760.050095016724	390.904931341408	982.366135653066	634.423735766276	318.199902478070	1080.145125902638	571.809145808728	383.850322012002	1097.246314621931	503.020065577613	385.797464686655	1079.061844717533	430.676749473409	374.311584838545	1006.361812407052	304.800367601113	322.651395081800	1082.046648423692	201.151003894740	384.238953814849	889.365724319385	393.569936423804	598.009119145574	802.886909370686	303.115894534987	661.857762170909	826.748891657003	202.382086315051	597.567806175605	672.474325902577	47.432656287065	568.371264446539	843.836158166107	95.506994500046	603.993579242312	755.165324116763	37.359699580453	642.249629146346	963.789739395814	39.848420236171	633.386800101882	980.321375349033	37.544476876921	423.374467004883	1054.364492784789	35.281652173152	342.956424573088	1136.265918556420	97.696679596064	369.169889091544	1265.472391643866	47.540608256371	341.363896747836	816.510954874725	1099.497535725849	231.617717549152	805.066195333413	839.122593224518	218.700271564459	1070.498077141105	1101.748212692423	797.753514879022	1307.382890074309	1133.077171170364	720.861123432911	
129	22.426000000000	770.118425494084	1005.559115579644	519.640651986771	946.837929675706	1429.465232822762	334.208293151416	1060.012270276419	1354.166319591827	485.004055901000	991.698404994685	1430.381176063049	664.534916647961	959.218387644765	1487.656508366380	485.865235818736	998.303608765101	934.115761181283	626.205728147166	974.030880956335	951.354390100323	352.510475264232	996.666038638656	721.425289969646	602.676787737166	890.353782512819	629.639614441139	663.479257646621	951.519977643876	561.279798424860	585.606710160707	930.185557174969	474.435649431742	589.275520161108	1043.962617270655	760.386265421106	389.731449257721	983.221951025610	635.006443442844	317.150962896319	1080.231286906347	572.043769000431	383.575408270142	1096.075522338330	502.449440663545	385.847279052707	1077.545579612818	429.844141794144	374.147084444307	1003.831722051899	304.856455971419	321.717880515834	1077.117798637993	200.264184376328	384.510412308144	887.374083193000	392.906559540883	596.712694002197	799.515065071593	303.998000296466	661.033826156636	821.737225083829	202.633432844886	597.166902220100	665.421115096324	49.111139157446	568.709333929096	837.249688667422	95.656116326793	604.118515425756	748.192031288402	37.988428977810	642.378837148300	956.800371826404	39.467024843915	633.436893447685	972.867641355977	37.504813946088	423.244960853922	1047.053682674833	35.316313193453	342.913401702656	1129.221588263871	97.116059870840	369.786644082970	1258.330052201197	46.416258134576	341.940165941552	816.972139790097	1098.703432727763	229.090723751081	806.812130289531	838.151590012319	216.376490076484	1063.811604600890	1100.460642222708	795.278164326655	1301.173476041233	1128.205188083967	717.898763678340	
